<?xml version="1.0" standalone="no"?>
<!DOCTYPE svg PUBLIC "-//W3C//DTD SVG 20010904//EN"
 "http://www.w3.org/TR/2001/REC-SVG-20010904/DTD/svg10.dtd">
<svg version="1.0" xmlns="http://www.w3.org/2000/svg"
 width="500.000000pt" height="500.000000pt" viewBox="0 0 500.000000 500.000000"
 preserveAspectRatio="xMidYMid meet">
<metadata>
Created by potrace 1.14, written by Peter Selinger 2001-2017
</metadata>
<g transform="translate(0.000000,500.000000) scale(0.100000,-0.100000)"
fill="#000000" stroke="none">
<path d="M651 4569 c-80 -24 -163 -96 -203 -177 l-23 -47 0 -1845 0 -1845 22
-45 c43 -85 111 -144 197 -174 46 -15 202 -16 1855 -16 1949 0 1857 -2 1934
52 47 32 94 87 120 138 l22 45 3 1826 c2 1669 1 1829 -14 1875 -29 85 -90 155
-174 197 l-45 22 -1830 2 c-1157 1 -1842 -2 -1864 -8z"/>
</g>
</svg>
